# xmcd
#
# Track frame offsets:
#	150
#	13312
#	27205
#	40559
#	55952
#	68457
#	85574
#	99141
#	115131
#	129752
#	145569
#	159040
#	173324
#	189981
#	209763
#	226506
#
# Disc length: 3232 seconds
#
# Revision: 0
# Processed by: cddbd v1.5.2PL0 Copyright (c) Steve Scherf et al.
# Submitted via: audiograbber 1.83.01
#
DISCID=ab0c9e10
DTITLE=Linda Feller - Mitten ins Herz CD1
DYEAR=2015
DGENRE=Country
TTITLE0=Wenn überhaupt
TTITLE1=Du weißt, was Frauen lieben
TTITLE2=Männer wollen nur das Eine
TTITLE3=Tu's doch
TTITLE4=Auch eine Frau kann durchaus ihren Mann steh'n
TTITLE5=Du bist das Salz in meiner Suppe
TTITLE6=Minuten im Fieber
TTITLE7=And're Mütter haben auch ein schönes Kind
TTITLE8=Das imponiert mir nicht
TTITLE9=Nadelstreifenmann
TTITLE10=Leben mit Dir
TTITLE11=Dieses Lied sing ich für die Liebe
TTITLE12=Tanzen mit dem Wind
TTITLE13=So stark wollt ich niemals sein
TTITLE14=Für uns zwei
TTITLE15=Ich schlaf in deinem T-Shirt
EXTD=Electrola 06025 4749226
EXTT0=
EXTT1=
EXTT2=
EXTT3=
EXTT4=
EXTT5=
EXTT6=
EXTT7=
EXTT8=
EXTT9=
EXTT10=
EXTT11=
EXTT12=
EXTT13=
EXTT14=
EXTT15=
PLAYORDER=
